<?xml version="1.0" encoding="utf-8"?>
<!-- Generator: Adobe Illustrator 16.0.0, SVG Export Plug-In . SVG Version: 6.00 Build 0)  -->
<!DOCTYPE svg PUBLIC "-//W3C//DTD SVG 1.1//EN" "http://www.w3.org/Graphics/SVG/1.1/DTD/svg11.dtd">
<svg version="1.1"
	 id="Layer_1" xmlns:inkscape="http://www.inkscape.org/namespaces/inkscape" xmlns:dc="http://purl.org/dc/elements/1.1/" xmlns:cc="http://creativecommons.org/ns#" xmlns:rdf="http://www.w3.org/1999/02/22-rdf-syntax-ns#" xmlns:svg="http://www.w3.org/2000/svg" xmlns:sodipodi="http://sodipodi.sourceforge.net/DTD/sodipodi-0.dtd" inkscape:export-ydpi="72" inkscape:export-xdpi="72" inkscape:export-filename="/media/aloncar/Storage/Downloads/agroPartner/logoFinal/agro_partner_logo.jpg.png" sodipodi:docname="agro_partner_logo_v2.svg" inkscape:version="0.48.4 r9939"
	 xmlns="http://www.w3.org/2000/svg" xmlns:xlink="http://www.w3.org/1999/xlink" x="0px" y="0px" width="293.172px"
	 height="128.161px" viewBox="0 0 293.172 128.161" enable-background="new 0 0 293.172 128.161" xml:space="preserve">
<sodipodi:namedview  id="namedview39" inkscape:cy="255.7642" inkscape:cx="513.9123" inkscape:zoom="2.2425732" showguides="true" showgrid="false" guidetolerance="10" gridtolerance="10" objecttolerance="10" borderopacity="1" bordercolor="#666666" pagecolor="#ffffff" inkscape:current-layer="g3124" inkscape:window-maximized="1" inkscape:window-y="24" inkscape:window-x="0" inkscape:guide-bbox="true" inkscape:window-height="1416" inkscape:window-width="2560" inkscape:pageshadow="2" inkscape:pageopacity="0">
	</sodipodi:namedview>
<g id="g3159" transform="matrix(3.2638364,0,0,3.2638364,-536.42367,-720.445)">
	<g id="g3141">
		<g id="g3124">
			<path id="path9" inkscape:connector-curvature="0" fill="#C0001F" d="M184.938,223.914c-0.331-0.615-0.745-1.156-1.245-1.623
				c-0.5-0.466-1.057-0.842-1.671-1.127c-0.614-0.285-1.205-0.428-1.773-0.428H164.49v3.201h-0.014v12.94h0.015
				c0,0.385,0.073,0.798,0.221,1.239c0.148,0.443,0.352,0.882,0.614,1.313c0.261,0.433,0.575,0.83,0.938,1.194
				c0.363,0.364,0.762,0.66,1.194,0.887c0.022,0.023,0.113,0.069,0.273,0.136c0.159,0.068,0.336,0.136,0.529,0.204
				c0.193,0.069,0.392,0.132,0.596,0.188c0.205,0.057,0.363,0.085,0.478,0.085h16.1v-16.298
				C185.435,225.166,185.269,224.529,184.938,223.914z M166.52,222.973c0.358,0.131,2.202,0.684,2.895,1.733
				c0.335,0.539,0.508,1.322,0.1,1.804c-0.051,0.061-0.117,0.109-0.187,0.174c-0.61-0.715-0.906-1.007-1.502-1.705
				c-0.014,0.01-0.029,0.02-0.043,0.03c0.495,0.772,0.691,1.135,1.185,1.904c-0.519,0.311-1.252,0.226-1.745-0.094
				c-0.581-0.431-0.709-0.9-0.79-1.117C166.218,225.066,166.37,224.373,166.52,222.973L166.52,222.973z M182.654,239.577h-12.23
				c-0.087,0-0.206-0.022-0.361-0.064c-0.157-0.043-0.308-0.091-0.453-0.143c-0.147-0.052-0.282-0.104-0.402-0.155
				c-0.121-0.051-0.189-0.086-0.206-0.104c-0.33-0.172-0.632-0.396-0.908-0.673c-0.275-0.276-0.514-0.578-0.713-0.906
				c-0.199-0.327-0.354-0.66-0.467-0.998c-0.112-0.336-0.168-0.651-0.168-0.946v-5.751h9.482v3.442h-0.003v0.052h-6.79l0.045,1.527
				c0,0-0.015,0.859,0.548,1.229c0.175,0.115,0.326,0.206,0.474,0.282c0.327,0.165,0.66,0.224,0.66,0.224h5.063v0.002h3.261v-2.637
				h0.007v-4.121v-1.758v-0.056c0-0.207-0.053-0.397-0.157-0.57c-0.103-0.172-0.233-0.324-0.388-0.453
				c-0.155-0.13-0.32-0.228-0.491-0.298c-0.173-0.069-0.337-0.104-0.492-0.104l-7.019-0.022c-0.014-0.879-0.372-2.053-1.413-3.242
				h9.184c0.432,0,0.881,0.108,1.348,0.325c0.466,0.216,0.89,0.501,1.269,0.855c0.381,0.355,0.696,0.766,0.946,1.233
				c0.25,0.467,0.377,0.952,0.377,1.453L182.654,239.577L182.654,239.577L182.654,239.577z"/>
			<g id="g11">
				<path id="path13" inkscape:connector-curvature="0" fill="#3F3F41" d="M164.354,248.103c0-1.583,1.288-2.87,2.87-2.87h1.962
					c1.246,0.043,2.384-0.021,3.588,0.549c1.54,0.738,2.257,2.447,2.257,4.093c0,1.562-0.549,3.038-1.963,3.903
					c-1.118,0.697-2.511,0.887-3.862,0.887h-2.004v5.338h-2.849v-11.9H164.354z M167.203,252.132h2.152
					c1.393,0,2.764-0.548,2.764-2.194c0-1.92-1.054-2.194-2.869-2.194h-1.688c-0.358,0-0.358,0.337-0.358,0.697L167.203,252.132
					L167.203,252.132L167.203,252.132z"/>
				<path id="path15" inkscape:connector-curvature="0" fill="#3F3F41" d="M179.247,246.345c0.296-0.802,1.118-1.309,1.962-1.309
					c0.887,0,1.645,0.528,1.941,1.309l5.169,13.63h-3.016l-1.266-3.438h-5.782l-1.286,3.438h-2.829L179.247,246.345z
					 M179.163,254.026h3.966l-1.983-5.528L179.163,254.026z"/>
				<path id="path17" inkscape:connector-curvature="0" fill="#3F3F41" d="M202.05,259.975h-3.46l-3.692-5.338h-1.857v5.338h-2.848
					v-11.9c0-1.583,1.308-2.87,2.911-2.87h1.92c1.266,0.042,2.426-0.022,3.608,0.549c1.52,0.738,2.258,2.447,2.258,4.093
					c-0.021,1.562-0.57,3.038-1.941,3.903c-0.316,0.19-0.633,0.359-1.011,0.465L202.05,259.975z M193.04,252.105h2.195
					c1.35,0,2.744-0.528,2.744-2.152c0-1.689-0.866-2.237-2.871-2.237h-1.414c-0.358,0-0.654,0.337-0.654,0.697V252.105
					L193.04,252.105L193.04,252.105z"/>
				<path id="path19" inkscape:connector-curvature="0" fill="#3F3F41" d="M201.966,247.78v-2.574h10.973v2.574h-4.094v12.196
					h-2.849V247.78H201.966z"/>
				<path id="path21" inkscape:connector-curvature="0" fill="#3F3F41" d="M218.168,246.281l5.76,9.032v-10.108h2.575v14.77h-2.722
					l-6.815-10.698v10.698h-2.574v-12.997c0-0.992,0.655-1.92,1.709-1.942C217.049,245.036,217.683,245.543,218.168,246.281z"/>
				<path id="path23" inkscape:connector-curvature="0" fill="#3F3F41" d="M230.157,248.054c0-1.562,1.266-2.849,2.848-2.849h7.386
					v2.574h-6.71c-0.358,0-0.676,0.296-0.676,0.655v2.531h5.465v2.469h-5.465v3.966h7.386v2.574h-10.234V248.054L230.157,248.054
					L230.157,248.054z"/>
				<path id="path25" inkscape:connector-curvature="0" fill="#3F3F41" d="M254.179,259.975h-3.46l-3.693-5.338h-1.856v5.338h-2.849
					v-11.9c0-1.583,1.31-2.87,2.912-2.87h1.92c1.267,0.042,2.426-0.022,3.609,0.549c1.518,0.738,2.257,2.447,2.257,4.093
					c-0.022,1.562-0.571,3.038-1.941,3.903c-0.316,0.19-0.634,0.359-1.013,0.465L254.179,259.975z M245.17,252.105h2.194
					c1.351,0,2.744-0.528,2.744-2.152c0-1.689-0.865-2.237-2.87-2.237h-1.413c-0.358,0-0.655,0.337-0.655,0.697V252.105z"/>
			</g>
			<path id="path29" inkscape:connector-curvature="0" fill="#3F3F41" d="M242.079,235.223c0.109,0.83-0.262,1.183-0.723,1.244
				c-0.524,0.068-0.951-0.204-1.139-0.702c-0.672-1.787,1.53-5.544,1.505-5.37C241.392,232.653,241.878,233.687,242.079,235.223z"/>
			<path id="path31" inkscape:connector-curvature="0" fill="#3F3F41" d="M252.456,231.981c-0.836-2.126-2.366-3.931-3.68-5.839
				c-0.267-0.389-0.153,0.016-4.213-5.392c-1.759,2.378-0.381,0.278-4.474,5.816c-1.817,2.462-2.596,3.906-3.308,6.064
				c-1.834,5.556,2.578,10.73,8.05,9.651c2.418-0.478,4.501-2.523,5.001-4.914c0.177-0.842,0.159-1.69-0.03-2.484
				c-0.258,2.724-2.684,5.102-5.508,5.079c-2.905-0.054-4.207-1.256-4.972-3.669c-1.254-3.958,3.138-8.308,5.183-11.245
				c7.529,8.057,7.678,12.966,3.689,16.279c-0.211,0.174-0.403,0.368-0.868,0.793c0.611-0.175,0.897-0.225,1.155-0.337
				C252.207,240.162,254.043,236.015,252.456,231.981L252.456,231.981z"/>
			<path id="path33" inkscape:connector-curvature="0" fill="#3F3F41" d="M199.022,228.487c0.298-0.807,1.126-1.317,1.975-1.317
				c0.893,0,1.276,0.531,1.573,1.317l5.205,13.725h-3.037l-1.274-3.463h-5.44l-1.677,3.463h-2.848L199.022,228.487z
				 M198.938,236.221h3.612l-1.616-5.566L198.938,236.221L198.938,236.221z"/>
			<path id="path35" inkscape:connector-curvature="0" fill="#3F3F41" d="M218.201,239.663v-2.869h-2.656v-2.549h5.523v7.48
				c-1.636,0.445-3.229,0.701-4.886,0.722c-2.189,0-4.164-0.638-5.609-2.295c-1.273-1.466-1.827-3.42-1.827-5.376
				c0-1.678,0.425-3.378,1.445-4.823c1.338-1.955,3.441-2.826,5.864-2.847c1.509,0,2.869,0.276,4.271,0.765v2.635h-0.361
				c-1.084-0.553-2.592-0.808-3.783-0.808c-1.402,0-2.741,0.532-3.57,1.7c-0.637,0.913-0.913,2.295-0.913,3.399
				c0,3.145,1.657,5.078,4.887,5.078C217.139,239.875,217.712,239.811,218.201,239.663L218.201,239.663z"/>
			<path id="path37" inkscape:connector-curvature="0" fill="#3F3F41" d="M235.929,242.212h-3.484l-3.717-5.375h-1.871v5.375h-2.867
				V230.23c0-1.594,1.316-2.89,2.931-2.89h1.934c1.274,0.043,2.443-0.022,3.633,0.552c1.53,0.744,2.274,2.464,2.274,4.121
				c-0.022,1.573-0.575,3.059-1.956,3.931c-0.318,0.192-0.637,0.362-1.019,0.468L235.929,242.212L235.929,242.212z M226.859,234.287
				h2.21c1.359,0,2.763-0.532,2.763-2.168c0-1.7-0.872-2.252-2.89-2.252h-1.424c-0.36,0-0.659,0.34-0.659,0.702V234.287
				L226.859,234.287L226.859,234.287z"/>
		</g>
	</g>
</g>
</svg>
