<?xml version="1.0" encoding="utf-8"?>
<!-- Generator: Adobe Illustrator 16.0.0, SVG Export Plug-In . SVG Version: 6.00 Build 0)  -->
<!DOCTYPE svg PUBLIC "-//W3C//DTD SVG 1.1//EN" "http://www.w3.org/Graphics/SVG/1.1/DTD/svg11.dtd">
<svg version="1.1" id="Layer_1" xmlns="http://www.w3.org/2000/svg" xmlns:xlink="http://www.w3.org/1999/xlink" x="0px" y="0px"
	 width="30px" height="30px" viewBox="0 0 30 30" enable-background="new 0 0 30 30" xml:space="preserve">
<g>
	<g>
		<path fill="#424143" d="M30,28.234C30,29.205,29.206,30,28.235,30H1.764C0.794,30,0,29.205,0,28.234V1.764
			C0,0.793,0.794,0,1.764,0h26.471C29.206,0,30,0.793,30,1.764V28.234z"/>
	</g>
	<g>
		<path fill="#3C3C3D" d="M15.472,17.481l-1.741-1.527l-4.975,4.263c0.183,0.172,0.423,0.274,0.692,0.274H21.49
			c0.27,0,0.51-0.103,0.691-0.274l-4.974-4.263L15.472,17.481z M15.472,17.481"/>
		<path fill="#3C3C3D" d="M22.182,10.721c-0.176-0.172-0.422-0.274-0.691-0.274H9.448c-0.265,0-0.51,0.103-0.692,0.274l6.716,5.753
			L22.182,10.721z M22.182,10.721"/>
		<path fill="#3C3C3D" d="M8.438,11.329v8.344l4.856-4.125L8.438,11.329z M8.438,11.329"/>
		<path fill="#3C3C3D" d="M17.645,15.548l4.855,4.125v-8.35L17.645,15.548z M17.645,15.548"/>
	</g>
	<g>
		<path fill="#FFFFFF" d="M15.002,17.013l-1.741-1.527l-4.974,4.263c0.182,0.172,0.422,0.274,0.692,0.274h12.041
			c0.271,0,0.511-0.103,0.692-0.274l-4.975-4.263L15.002,17.013z M15.002,17.013"/>
		<path fill="#FFFFFF" d="M21.713,10.252c-0.177-0.172-0.422-0.274-0.692-0.274H8.979c-0.266,0-0.511,0.103-0.692,0.274l6.715,5.753
			L21.713,10.252z M21.713,10.252"/>
		<path fill="#FFFFFF" d="M7.969,10.86v8.344l4.856-4.125L7.969,10.86z M7.969,10.86"/>
		<path fill="#FFFFFF" d="M17.176,15.079l4.855,4.125v-8.35L17.176,15.079z M17.176,15.079"/>
	</g>
</g>
</svg>
