<?xml version="1.0" encoding="utf-8"?>
<!-- Generator: Adobe Illustrator 16.0.0, SVG Export Plug-In . SVG Version: 6.00 Build 0)  -->
<!DOCTYPE svg PUBLIC "-//W3C//DTD SVG 1.1//EN" "http://www.w3.org/Graphics/SVG/1.1/DTD/svg11.dtd">
<svg version="1.1" id="Layer_1" xmlns="http://www.w3.org/2000/svg" xmlns:xlink="http://www.w3.org/1999/xlink" x="0px" y="0px"
	 width="30px" height="30px" viewBox="0 0 30 30" enable-background="new 0 0 30 30" xml:space="preserve">
<g>
	<path fill="#424143" d="M30,28.236C30,29.206,29.205,30,28.235,30H1.764C0.793,30,0,29.206,0,28.236V1.763C0,0.793,0.793,0,1.764,0
		h26.472C29.205,0,30,0.793,30,1.763V28.236z"/>
	<path id="Facebook_2_" fill="#3C3C3D" d="M13.242,10.673c0,0.41,0,2.242,0,2.242H11.6v2.742h1.643v7.524h3.375v-7.524h2.265
		c0,0,0.212-1.314,0.315-2.752c-0.295,0-2.567,0-2.567,0s0-1.595,0-1.875s0.368-0.657,0.732-0.657c0.362,0,1.128,0,1.838,0
		c0-0.374,0-1.663,0-2.854c-0.947,0-2.024,0-2.499,0C13.16,7.519,13.242,10.263,13.242,10.673z"/>
	<path id="Facebook_1_" fill="#FFFFFF" d="M12.843,10.323c0,0.41,0,2.241,0,2.241h-1.644v2.742h1.644v7.525h3.374v-7.525h2.264
		c0,0,0.213-1.313,0.315-2.752c-0.295,0-2.566,0-2.566,0s0-1.595,0-1.874c0-0.28,0.368-0.657,0.731-0.657c0.362,0,1.13,0,1.839,0
		c0-0.374,0-1.664,0-2.855c-0.947,0-2.025,0-2.5,0C12.759,7.168,12.843,9.913,12.843,10.323z"/>
</g>
</svg>
