<?xml version="1.0" encoding="utf-8"?>
<!-- Generator: Adobe Illustrator 16.0.0, SVG Export Plug-In . SVG Version: 6.00 Build 0)  -->
<!DOCTYPE svg PUBLIC "-//W3C//DTD SVG 1.1//EN" "http://www.w3.org/Graphics/SVG/1.1/DTD/svg11.dtd">
<svg version="1.1" id="Layer_1" xmlns="http://www.w3.org/2000/svg" xmlns:xlink="http://www.w3.org/1999/xlink" x="0px" y="0px"
	 width="30px" height="30px" viewBox="0 0 30 30" enable-background="new 0 0 30 30" xml:space="preserve">
<g>
	<path fill="#424143" d="M30,28.237C30,29.207,29.206,30,28.236,30H1.764C0.794,30,0,29.207,0,28.237V1.763C0,0.794,0.794,0,1.764,0
		h26.472C29.206,0,30,0.794,30,1.763V28.237z"/>
	<polygon fill="#3C3C3D" points="20.503,10.622 20.503,8.31 19.518,8.31 19.518,10.622 17.206,10.622 17.206,11.595 19.518,11.595 
		19.518,13.925 20.503,13.925 20.503,11.595 22.816,11.595 22.816,10.622 	"/>
	<path fill="#3C3C3D" d="M16.346,17.377c-0.142-0.198-0.309-0.384-0.499-0.557c-0.191-0.172-0.385-0.345-0.582-0.519l-0.666-0.517
		c-0.098-0.087-0.203-0.188-0.313-0.306c-0.112-0.117-0.167-0.281-0.167-0.49c0-0.211,0.055-0.383,0.167-0.519
		c0.11-0.135,0.227-0.266,0.351-0.39c0.197-0.146,0.388-0.304,0.573-0.471c0.184-0.167,0.351-0.352,0.499-0.555
		c0.147-0.205,0.265-0.436,0.351-0.694c0.086-0.26,0.13-0.562,0.13-0.908c0-0.344-0.051-0.653-0.148-0.925
		c-0.099-0.271-0.216-0.508-0.352-0.712c-0.135-0.203-0.276-0.375-0.425-0.519c-0.147-0.141-0.277-0.255-0.388-0.342h1.146
		l1.183-0.646h-3.807c-0.505,0-1.051,0.062-1.636,0.185c-0.585,0.123-1.143,0.401-1.673,0.832C9.695,9.67,9.4,10.062,9.203,10.499
		c-0.197,0.438-0.295,0.872-0.295,1.303c0,0.357,0.067,0.711,0.203,1.063c0.136,0.35,0.333,0.662,0.591,0.932
		c0.258,0.272,0.579,0.491,0.96,0.657c0.382,0.166,0.819,0.249,1.312,0.249c0.099,0,0.197-0.003,0.296-0.009
		c0.099-0.006,0.198-0.016,0.295-0.027c-0.049,0.109-0.092,0.218-0.129,0.322c-0.038,0.105-0.056,0.238-0.056,0.397
		c0,0.284,0.059,0.521,0.176,0.712c0.117,0.19,0.243,0.372,0.379,0.546c-0.21,0.011-0.456,0.029-0.739,0.055
		c-0.284,0.024-0.585,0.068-0.906,0.129c-0.32,0.062-0.645,0.145-0.97,0.25c-0.327,0.104-0.632,0.243-0.915,0.416
		c-0.543,0.32-0.915,0.692-1.118,1.117c-0.203,0.426-0.306,0.804-0.306,1.137c0,0.344,0.081,0.675,0.241,0.989
		c0.16,0.315,0.407,0.595,0.739,0.84c0.333,0.247,0.749,0.444,1.248,0.591c0.499,0.148,1.081,0.222,1.746,0.222
		c0.788,0,1.487-0.101,2.097-0.304c0.61-0.205,1.118-0.47,1.525-0.796c0.406-0.328,0.714-0.701,0.924-1.12
		c0.208-0.42,0.314-0.845,0.314-1.277c0-0.32-0.043-0.604-0.129-0.851C16.601,17.795,16.487,17.573,16.346,17.377z M12.844,14.185
		c-0.395,0-0.736-0.113-1.025-0.342c-0.29-0.229-0.53-0.511-0.72-0.844c-0.192-0.333-0.333-0.692-0.426-1.075
		c-0.092-0.384-0.138-0.73-0.138-1.039c0-0.247,0.027-0.488,0.083-0.723c0.055-0.236,0.163-0.452,0.323-0.65
		c0.148-0.185,0.339-0.333,0.573-0.445c0.233-0.112,0.474-0.167,0.721-0.167c0.382,0,0.717,0.113,1.007,0.342
		c0.29,0.229,0.533,0.517,0.729,0.862c0.198,0.346,0.345,0.718,0.444,1.113c0.098,0.396,0.147,0.76,0.147,1.093
		c0,0.174-0.025,0.39-0.073,0.65c-0.05,0.26-0.18,0.495-0.388,0.705c-0.148,0.148-0.336,0.271-0.564,0.37
		C13.309,14.136,13.077,14.185,12.844,14.185z M14.887,21.052c-0.462,0.375-1.137,0.563-2.023,0.563
		c-0.999,0-1.79-0.209-2.376-0.629c-0.585-0.418-0.878-0.96-0.878-1.626c0-0.333,0.065-0.61,0.195-0.832
		c0.129-0.222,0.28-0.406,0.453-0.555c0.173-0.148,0.348-0.262,0.526-0.341c0.179-0.08,0.317-0.138,0.417-0.175
		c0.197-0.062,0.4-0.114,0.61-0.157c0.209-0.044,0.406-0.074,0.59-0.093c0.185-0.019,0.345-0.031,0.48-0.037
		c0.136-0.006,0.223-0.009,0.259-0.009c0.099,0,0.176,0,0.23,0c0.056,0,0.121,0.006,0.194,0.018
		c0.345,0.248,0.647,0.469,0.905,0.666c0.259,0.197,0.469,0.387,0.629,0.573c0.16,0.184,0.28,0.373,0.36,0.563
		c0.08,0.191,0.121,0.404,0.121,0.638C15.58,20.198,15.348,20.674,14.887,21.052z"/>
	<polygon fill="#FFFFFF" points="20.103,10.272 20.103,7.959 19.118,7.959 19.118,10.272 16.806,10.272 16.806,11.246 
		19.118,11.246 19.118,13.575 20.103,13.575 20.103,11.246 22.416,11.246 22.416,10.272 	"/>
	<path fill="#FFFFFF" d="M15.947,17.027c-0.142-0.198-0.309-0.383-0.5-0.557c-0.19-0.172-0.384-0.344-0.583-0.518L14.2,15.435
		c-0.099-0.087-0.203-0.189-0.314-0.306s-0.167-0.281-0.167-0.49c0-0.21,0.056-0.382,0.167-0.518s0.228-0.266,0.351-0.389
		c0.198-0.147,0.388-0.305,0.573-0.471c0.185-0.167,0.352-0.352,0.499-0.555c0.148-0.204,0.265-0.436,0.352-0.694
		c0.086-0.26,0.129-0.562,0.129-0.907s-0.049-0.654-0.147-0.926c-0.099-0.271-0.216-0.508-0.352-0.712
		c-0.135-0.204-0.277-0.375-0.426-0.519c-0.147-0.141-0.276-0.255-0.387-0.342h1.146l1.183-0.646h-3.807
		c-0.505,0-1.05,0.063-1.635,0.185c-0.586,0.123-1.143,0.401-1.672,0.831C9.296,9.32,9,9.712,8.804,10.149s-0.295,0.872-0.295,1.303
		c0,0.357,0.067,0.711,0.203,1.063c0.135,0.351,0.333,0.662,0.591,0.932c0.259,0.272,0.579,0.491,0.961,0.657
		c0.381,0.166,0.819,0.249,1.312,0.249c0.099,0,0.197-0.003,0.295-0.009c0.098-0.007,0.197-0.016,0.296-0.028
		c-0.049,0.11-0.093,0.218-0.129,0.322c-0.037,0.105-0.056,0.238-0.056,0.397c0,0.284,0.059,0.522,0.176,0.712
		s0.243,0.373,0.379,0.545c-0.209,0.011-0.456,0.03-0.74,0.055c-0.284,0.023-0.585,0.067-0.905,0.129s-0.644,0.145-0.971,0.25
		c-0.326,0.104-0.63,0.243-0.915,0.416c-0.542,0.321-0.915,0.692-1.118,1.117c-0.203,0.426-0.305,0.804-0.305,1.137
		c0,0.345,0.081,0.674,0.24,0.988c0.161,0.315,0.406,0.595,0.74,0.841c0.332,0.247,0.748,0.444,1.247,0.591
		c0.499,0.148,1.082,0.222,1.747,0.222c0.788,0,1.487-0.101,2.098-0.304c0.609-0.205,1.118-0.47,1.524-0.796
		c0.406-0.328,0.714-0.701,0.923-1.12c0.21-0.419,0.314-0.845,0.314-1.277c0-0.32-0.043-0.604-0.129-0.852
		C16.201,17.445,16.088,17.223,15.947,17.027z M12.445,13.836c-0.395,0-0.737-0.115-1.026-0.343
		c-0.29-0.229-0.529-0.511-0.721-0.844c-0.191-0.333-0.332-0.692-0.425-1.075c-0.092-0.384-0.138-0.73-0.138-1.038
		c0-0.249,0.027-0.489,0.083-0.724c0.056-0.236,0.164-0.452,0.324-0.65c0.147-0.185,0.338-0.333,0.572-0.445
		c0.233-0.112,0.474-0.167,0.721-0.167c0.382,0,0.717,0.114,1.006,0.343c0.29,0.229,0.533,0.516,0.73,0.862
		c0.197,0.346,0.344,0.718,0.443,1.113c0.099,0.396,0.148,0.76,0.148,1.093c0,0.174-0.025,0.39-0.074,0.65
		c-0.049,0.26-0.178,0.494-0.388,0.705c-0.147,0.148-0.336,0.271-0.564,0.37C12.909,13.786,12.678,13.836,12.445,13.836z
		 M14.486,20.702c-0.462,0.375-1.136,0.563-2.023,0.563c-0.998,0-1.79-0.21-2.375-0.629c-0.585-0.418-0.878-0.96-0.878-1.626
		c0-0.332,0.065-0.609,0.194-0.831c0.13-0.222,0.28-0.406,0.453-0.555c0.172-0.147,0.348-0.262,0.526-0.342
		c0.179-0.08,0.317-0.138,0.416-0.175c0.197-0.062,0.4-0.114,0.609-0.157c0.21-0.044,0.407-0.074,0.592-0.094
		c0.185-0.018,0.345-0.031,0.48-0.036c0.135-0.006,0.222-0.009,0.259-0.009c0.098,0,0.175,0,0.231,0c0.055,0,0.12,0.006,0.194,0.018
		c0.345,0.247,0.646,0.469,0.906,0.666c0.258,0.197,0.468,0.388,0.628,0.573c0.16,0.184,0.28,0.373,0.361,0.563
		c0.08,0.191,0.12,0.405,0.12,0.637C15.18,19.849,14.949,20.325,14.486,20.702z"/>
</g>
</svg>
