<?xml version="1.0" encoding="utf-8"?>
<!-- Generator: Adobe Illustrator 16.0.0, SVG Export Plug-In . SVG Version: 6.00 Build 0)  -->
<!DOCTYPE svg PUBLIC "-//W3C//DTD SVG 1.1//EN" "http://www.w3.org/Graphics/SVG/1.1/DTD/svg11.dtd">
<svg version="1.1" id="Layer_1" xmlns="http://www.w3.org/2000/svg" xmlns:xlink="http://www.w3.org/1999/xlink" x="0px" y="0px"
	 width="30px" height="30px" viewBox="0 0 30 30" enable-background="new 0 0 30 30" xml:space="preserve">
<g>
	<path fill="#424143" d="M30,28.237C30,29.206,29.206,30,28.235,30H1.764C0.794,30,0,29.206,0,28.237V1.763C0,0.794,0.794,0,1.764,0
		h26.471C29.206,0,30,0.794,30,1.763V28.237z"/>
	<path fill="#3C3C3D" d="M11.239,21.247H8.593V12.78h2.646V21.247z M10.249,11.722h-0.02c-0.957,0-1.577-0.474-1.577-1.293
		c0-0.836,0.639-1.381,1.615-1.381c0.976,0,1.577,0.5,1.596,1.336C11.862,11.203,11.243,11.722,10.249,11.722z M21.822,21.247
		h-2.999v-4.031c0-1.147-0.27-1.929-1.301-1.929c-0.789,0-1.328,0.528-1.534,1.037c-0.077,0.182-0.164,0.438-0.164,0.691v4.231
		h-2.571c0,0,0.038-7.761,0-8.467h2.571v1.679c0.177-0.582,1.125-1.41,2.641-1.41c1.879,0,3.356,1.219,3.356,3.84V21.247z"/>
	<path fill="#FFFFFF" d="M11.239,21.247H8.593V12.78h2.646V21.247z M9.849,11.722h-0.02c-0.957,0-1.577-0.647-1.577-1.468
		c0-0.836,0.638-1.47,1.615-1.47c0.976,0,1.577,0.632,1.596,1.468C11.463,11.072,10.844,11.722,9.849,11.722z M21.822,21.247h-2.999
		v-4.381c0-1.147-0.469-1.93-1.501-1.93c-0.79,0-1.228,0.528-1.433,1.038c-0.077,0.181-0.065,0.437-0.065,0.69v4.582h-2.971
		c0,0,0.038-7.761,0-8.467h2.971v1.33c0.177-0.582,1.125-1.41,2.641-1.41c1.879,0,3.356,1.218,3.356,3.839V21.247z"/>
</g>
</svg>
