<?xml version="1.0" encoding="utf-8"?>
<!-- Generator: Adobe Illustrator 16.0.0, SVG Export Plug-In . SVG Version: 6.00 Build 0)  -->
<!DOCTYPE svg PUBLIC "-//W3C//DTD SVG 1.1//EN" "http://www.w3.org/Graphics/SVG/1.1/DTD/svg11.dtd">
<svg version="1.1" id="Layer_1" xmlns="http://www.w3.org/2000/svg" xmlns:xlink="http://www.w3.org/1999/xlink" x="0px" y="0px"
	 width="30px" height="30px" viewBox="0 0 30 30" enable-background="new 0 0 30 30" xml:space="preserve">
<g>
	<path fill="#424143" d="M30,28.235C30,29.206,29.206,30,28.237,30H1.764C0.794,30,0,29.206,0,28.235V1.764C0,0.793,0.794,0,1.764,0
		h26.473C29.206,0,30,0.793,30,1.764V28.235z"/>
	<g>
		<defs>
			<path id="SVGID_1_" d="M15.4,14.224c-0.09,0-0.18,0-0.27,0c-1.724,0-3.416,0.032-5.072,0.101c-1.221,0-2.209,0.979-2.209,2.186
				c-0.073,0.956-0.106,1.911-0.103,2.866c-0.003,0.956,0.029,1.911,0.103,2.868c0,1.206,0.989,2.184,2.209,2.184
				c1.741,0.075,3.525,0.105,5.342,0.103c1.817,0.003,3.599-0.027,5.341-0.103c1.221,0,2.211-0.978,2.211-2.184
				c0.073-0.957,0.104-1.912,0.103-2.868c0.002-0.955-0.029-1.91-0.103-2.866c0-1.207-0.99-2.186-2.211-2.186
				c-1.655-0.068-3.346-0.101-5.071-0.101C15.581,14.224,15.491,14.224,15.4,14.224"/>
		</defs>
		<use xlink:href="#SVGID_1_"  overflow="visible" fill="#3C3C3D"/>
		<clipPath id="SVGID_2_">
			<use xlink:href="#SVGID_1_"  overflow="visible"/>
		</clipPath>
		<rect x="7.743" y="14.224" clip-path="url(#SVGID_2_)" fill="#3C3C3D" width="15.314" height="10.31"/>
	</g>
	<g>
		<defs>
			<polygon id="SVGID_3_" points="12.531,6.168 11.884,8.875 11.817,8.875 11.139,6.168 10.084,6.168 11.331,10.256 11.331,12.94 
				12.376,12.94 12.376,10.13 13.594,6.168 			"/>
		</defs>
		<use xlink:href="#SVGID_3_"  overflow="visible" fill="#3C3C3D"/>
		<clipPath id="SVGID_4_">
			<use xlink:href="#SVGID_3_"  overflow="visible"/>
		</clipPath>
		<rect x="10.084" y="6.168" clip-path="url(#SVGID_4_)" fill="#3C3C3D" width="3.509" height="6.772"/>
	</g>
	<g>
		<defs>
			<path id="SVGID_5_" d="M14.601,12.089c-0.065-0.075-0.099-0.182-0.099-0.319V9.049c0-0.109,0.036-0.197,0.106-0.266
				c0.071-0.065,0.163-0.099,0.276-0.099c0.122,0,0.222,0.033,0.296,0.099c0.075,0.068,0.114,0.156,0.114,0.266v2.721
				c0,0.134-0.037,0.239-0.11,0.316c-0.075,0.076-0.175,0.114-0.3,0.114C14.762,12.2,14.667,12.163,14.601,12.089 M13.921,8.161
				c-0.25,0.23-0.376,0.538-0.376,0.925l0,2.591c0,0.424,0.122,0.762,0.366,1.013c0.243,0.252,0.569,0.377,0.975,0.377
				c0.421,0,0.753-0.122,0.994-0.364c0.24-0.243,0.361-0.579,0.361-1.008V9.115c0-0.382-0.123-0.693-0.367-0.934
				c-0.246-0.242-0.562-0.364-0.945-0.364C14.507,7.817,14.17,7.933,13.921,8.161"/>
		</defs>
		<use xlink:href="#SVGID_5_"  overflow="visible" fill="#3C3C3D"/>
		<clipPath id="SVGID_6_">
			<use xlink:href="#SVGID_5_"  overflow="visible"/>
		</clipPath>
		<rect x="13.545" y="7.817" clip-path="url(#SVGID_6_)" fill="#3C3C3D" width="2.697" height="5.249"/>
	</g>
	<g>
		<defs>
			<path id="SVGID_7_" d="M18.753,7.944v3.792c-0.089,0.108-0.183,0.198-0.287,0.269c-0.105,0.071-0.191,0.105-0.259,0.105
				c-0.088,0-0.15-0.026-0.188-0.079c-0.04-0.053-0.06-0.139-0.06-0.258V7.944h-0.927v4.176c0,0.297,0.053,0.52,0.162,0.67
				c0.109,0.147,0.271,0.222,0.485,0.222c0.175,0,0.354-0.054,0.54-0.159c0.185-0.105,0.363-0.262,0.534-0.464v0.552h0.929V7.944
				H18.753z"/>
		</defs>
		<use xlink:href="#SVGID_7_"  overflow="visible" fill="#3C3C3D"/>
		<clipPath id="SVGID_8_">
			<use xlink:href="#SVGID_7_"  overflow="visible"/>
		</clipPath>
		<rect x="17.032" y="7.944" clip-path="url(#SVGID_8_)" fill="#3C3C3D" width="2.65" height="5.067"/>
	</g>
	<path fill="#3C3C3D" d="M12.142,15.894h-3.21v0.983h1.082v5.79h1.046v-5.79h1.082V15.894z M13.851,21.462
		c-0.086,0.109-0.181,0.199-0.287,0.269c-0.104,0.071-0.191,0.105-0.258,0.105c-0.087,0-0.15-0.026-0.188-0.079
		c-0.041-0.054-0.059-0.14-0.059-0.258V17.67H12.13v4.176c0,0.297,0.053,0.521,0.164,0.669c0.109,0.148,0.27,0.224,0.484,0.224
		c0.174,0,0.354-0.054,0.541-0.159c0.184-0.106,0.361-0.262,0.533-0.466v0.554h0.929V17.67h-0.929V21.462z M17.451,17.607
		c-0.145,0-0.287,0.038-0.427,0.119c-0.141,0.078-0.273,0.194-0.398,0.347v-2.18h-0.938v6.773h0.938v-0.385
		c0.122,0.151,0.254,0.264,0.395,0.337c0.145,0.073,0.306,0.109,0.487,0.109c0.275,0,0.485-0.093,0.632-0.282
		c0.146-0.188,0.218-0.461,0.218-0.815v-2.771c0-0.408-0.078-0.719-0.232-0.933C17.97,17.714,17.745,17.607,17.451,17.607
		 M17.4,21.495c0,0.159-0.027,0.274-0.081,0.344c-0.053,0.07-0.137,0.105-0.25,0.105c-0.079,0-0.154-0.019-0.225-0.054
		c-0.07-0.036-0.144-0.095-0.22-0.176v-3.113c0.063-0.069,0.127-0.119,0.191-0.152c0.064-0.031,0.13-0.049,0.197-0.049
		c0.125,0,0.221,0.044,0.287,0.131c0.068,0.088,0.101,0.215,0.101,0.385V21.495z M21.79,20.284v-1.271
		c0-0.476-0.114-0.839-0.342-1.091c-0.228-0.253-0.555-0.379-0.979-0.379c-0.416,0-0.755,0.136-1.018,0.409
		s-0.394,0.626-0.394,1.061v2.242c0,0.48,0.12,0.857,0.358,1.134c0.24,0.273,0.567,0.411,0.982,0.411
		c0.462,0,0.81-0.129,1.043-0.389c0.232-0.258,0.35-0.645,0.35-1.156v-0.375h-0.956v0.347c0,0.295-0.031,0.483-0.093,0.569
		s-0.169,0.129-0.323,0.129c-0.147,0-0.251-0.05-0.313-0.151c-0.062-0.103-0.091-0.284-0.091-0.547v-0.943H21.79z M20.014,19.004
		c0-0.21,0.032-0.359,0.097-0.45c0.063-0.09,0.169-0.135,0.317-0.135c0.143,0,0.245,0.045,0.31,0.135
		c0.064,0.091,0.097,0.24,0.097,0.45v0.506h-0.82V19.004z"/>
	<g>
		<defs>
			<path id="SVGID_9_" d="M15,13.874c-0.091,0-0.18,0-0.271,0c-1.723,0-3.415,0.032-5.071,0.101c-1.22,0-2.21,0.979-2.21,2.186
				c-0.073,0.956-0.105,1.912-0.103,2.866c-0.002,0.956,0.029,1.911,0.103,2.868c0,1.206,0.99,2.184,2.21,2.184
				c1.742,0.075,3.525,0.105,5.342,0.103c1.816,0.003,3.6-0.027,5.341-0.103c1.221,0,2.21-0.978,2.21-2.184
				c0.074-0.957,0.105-1.912,0.104-2.868c0.002-0.954-0.029-1.91-0.104-2.866c0-1.207-0.989-2.186-2.21-2.186
				c-1.655-0.068-3.347-0.101-5.071-0.101C15.18,13.874,15.09,13.874,15,13.874"/>
		</defs>
		<use xlink:href="#SVGID_9_"  overflow="visible" fill="#FFFFFF"/>
		<clipPath id="SVGID_10_">
			<use xlink:href="#SVGID_9_"  overflow="visible"/>
		</clipPath>
		<rect x="7.343" y="13.874" clip-path="url(#SVGID_10_)" fill="#FFFFFF" width="15.314" height="10.31"/>
	</g>
	<g>
		<defs>
			<polygon id="SVGID_11_" points="12.131,5.818 11.483,8.525 11.417,8.525 10.738,5.818 9.685,5.818 10.93,9.906 10.93,12.59 
				11.975,12.59 11.975,9.78 13.193,5.818 			"/>
		</defs>
		<use xlink:href="#SVGID_11_"  overflow="visible" fill="#FFFFFF"/>
		<clipPath id="SVGID_12_">
			<use xlink:href="#SVGID_11_"  overflow="visible"/>
		</clipPath>
		<rect x="9.685" y="5.818" clip-path="url(#SVGID_12_)" fill="#FFFFFF" width="3.508" height="6.771"/>
	</g>
	<g>
		<defs>
			<path id="SVGID_13_" d="M14.202,11.739c-0.068-0.075-0.101-0.182-0.101-0.319V8.699c0-0.109,0.037-0.197,0.107-0.266
				c0.07-0.065,0.162-0.099,0.275-0.099c0.123,0,0.222,0.033,0.297,0.099c0.076,0.068,0.114,0.156,0.114,0.266v2.721
				c0,0.134-0.036,0.239-0.11,0.316c-0.075,0.076-0.175,0.114-0.301,0.114C14.361,11.851,14.268,11.813,14.202,11.739 M13.521,7.812
				c-0.25,0.23-0.376,0.538-0.376,0.925l0.001,2.591c0,0.424,0.122,0.762,0.365,1.013s0.57,0.377,0.976,0.377
				c0.421,0,0.752-0.122,0.994-0.364c0.239-0.244,0.361-0.579,0.361-1.008V8.766c0-0.382-0.123-0.693-0.368-0.935
				c-0.245-0.241-0.561-0.363-0.945-0.363C14.106,7.468,13.771,7.583,13.521,7.812"/>
		</defs>
		<use xlink:href="#SVGID_13_"  overflow="visible" fill="#FFFFFF"/>
		<clipPath id="SVGID_14_">
			<use xlink:href="#SVGID_13_"  overflow="visible"/>
		</clipPath>
		<rect x="13.145" y="7.468" clip-path="url(#SVGID_14_)" fill="#FFFFFF" width="2.697" height="5.249"/>
	</g>
	<g>
		<defs>
			<path id="SVGID_15_" d="M18.353,7.596v3.791c-0.088,0.108-0.183,0.198-0.287,0.269c-0.105,0.071-0.191,0.105-0.259,0.105
				c-0.088,0-0.15-0.025-0.189-0.079c-0.039-0.053-0.059-0.139-0.059-0.258V7.596h-0.928v4.174c0,0.298,0.053,0.521,0.161,0.671
				c0.11,0.147,0.272,0.222,0.486,0.222c0.175,0,0.354-0.054,0.539-0.16c0.185-0.104,0.364-0.261,0.535-0.463v0.551h0.929V7.596
				H18.353z"/>
		</defs>
		<use xlink:href="#SVGID_15_"  overflow="visible" fill="#FFFFFF"/>
		<clipPath id="SVGID_16_">
			<use xlink:href="#SVGID_15_"  overflow="visible"/>
		</clipPath>
		<rect x="16.631" y="7.596" clip-path="url(#SVGID_16_)" fill="#FFFFFF" width="2.65" height="5.066"/>
	</g>
	<path fill="#4F4F4F" d="M11.742,15.544H8.531v0.983h1.083v5.789h1.046v-5.789h1.082V15.544z M13.451,21.112
		c-0.086,0.109-0.182,0.199-0.287,0.269c-0.105,0.071-0.191,0.105-0.259,0.105c-0.086,0-0.15-0.026-0.188-0.079
		c-0.04-0.054-0.059-0.14-0.059-0.258V17.32h-0.929v4.176c0,0.297,0.053,0.521,0.163,0.669s0.271,0.224,0.485,0.224
		c0.174,0,0.354-0.054,0.54-0.16c0.184-0.105,0.363-0.261,0.533-0.465v0.553h0.928V17.32h-0.928V21.112z M17.051,17.258
		c-0.145,0-0.288,0.038-0.429,0.119c-0.139,0.078-0.271,0.193-0.397,0.347v-2.18h-0.938v6.772h0.938v-0.384
		c0.122,0.151,0.252,0.264,0.396,0.337c0.143,0.073,0.304,0.109,0.485,0.109c0.277,0,0.485-0.093,0.632-0.282
		c0.146-0.188,0.218-0.461,0.218-0.815v-2.772c0-0.407-0.077-0.718-0.231-0.932C17.569,17.364,17.344,17.258,17.051,17.258
		 M17,21.145c0,0.16-0.026,0.275-0.081,0.345c-0.052,0.07-0.137,0.105-0.251,0.105c-0.079,0-0.152-0.019-0.223-0.054
		c-0.072-0.036-0.145-0.095-0.22-0.176v-3.113c0.062-0.069,0.126-0.119,0.19-0.152c0.065-0.031,0.13-0.049,0.198-0.049
		c0.125,0,0.221,0.044,0.287,0.131c0.067,0.089,0.1,0.215,0.1,0.385V21.145z M21.389,19.935v-1.271c0-0.476-0.114-0.839-0.342-1.091
		c-0.228-0.253-0.556-0.379-0.98-0.379c-0.416,0-0.753,0.136-1.016,0.409c-0.264,0.273-0.394,0.626-0.394,1.061v2.242
		c0,0.48,0.119,0.857,0.359,1.133c0.238,0.274,0.565,0.412,0.981,0.412c0.461,0,0.81-0.129,1.042-0.388
		c0.234-0.259,0.349-0.646,0.349-1.157V20.53h-0.956v0.348c0,0.295-0.029,0.483-0.091,0.569c-0.061,0.086-0.169,0.129-0.324,0.129
		c-0.146,0-0.251-0.051-0.312-0.152c-0.063-0.102-0.093-0.283-0.093-0.546v-0.943H21.389z M19.612,18.654
		c0-0.21,0.033-0.359,0.097-0.45s0.17-0.136,0.318-0.136c0.143,0,0.244,0.045,0.309,0.136c0.065,0.091,0.097,0.24,0.097,0.45v0.506
		h-0.82V18.654z"/>
</g>
</svg>
